<svg width="35.341019mm" height="44.396976mm" version="1.1" viewBox="0 0 35.341019 44.396976" xmlns="http://www.w3.org/2000/svg">
 <g transform="translate(-117.17237,-89.11968)">
  <g transform="translate(-228.88779,28.166657)" stroke-linecap="round" stroke-linejoin="round">
   <g stroke-width=".7">
    <path d="m346.41016 95 17.32051 10 17.32051-10m0-15-17.32051-10-17.32051 10m17.32051 10 17.32051-10v15m-34.64102 0v-15l17.32051 10v15" fill="none" stroke="#060d0e"/>
    <path d="m368.06079 92.5 8.66026-5v5l-8.66026 5z" fill="none" stroke="#060d0e"/>
    <path d="m351.82869 74.42441a11.819654 5.9390002 0 0 1 11.81965-5.939 11.819654 5.9390002 0 0 1 11.81965 5.939 11.819654 5.9390002 0 0 1-11.81965 5.939 11.819654 5.9390002 0 0 1-11.81965-5.939m23.6393 0.28795a11.819654 10.18892 0 0 1-11.81965 10.18892 11.819654 10.18892 0 0 1-11.81965-10.18892" fill="#418f94" stroke="#000"/>
   </g>
   <g stroke="#000">
    <path d="m363.73067 80v-5" fill="none" stroke-width="1.1"/>
    <path d="m363.73067 75-12.99038-7.5v-5" fill="none" stroke-width="1.8"/>
    <ellipse cx="350.63779" cy="62.475861" rx="1.4073271" ry=".62283266" stroke-width="1.80001"/>
   </g>
  </g>
 </g>
</svg>
