<?xml version="1.0" encoding="UTF-8" standalone="no"?>
<svg
   xmlns:dc="http://purl.org/dc/elements/1.1/"
   xmlns:cc="http://creativecommons.org/ns#"
   xmlns:rdf="http://www.w3.org/1999/02/22-rdf-syntax-ns#"
   xmlns:svg="http://www.w3.org/2000/svg"
   xmlns="http://www.w3.org/2000/svg"
   xmlns:sodipodi="http://sodipodi.sourceforge.net/DTD/sodipodi-0.dtd"
   xmlns:inkscape="http://www.inkscape.org/namespaces/inkscape"
   sodipodi:docname="logo_v2_ink.svg"
   inkscape:version="1.0 (4035a4fb49, 2020-05-01)"
   id="svg1266"
   version="1.1"
   viewBox="0 0 63.234982 14.074111"
   height="14.074111mm"
   width="63.234982mm">
  <defs
     id="defs1260" />
  <sodipodi:namedview
     inkscape:window-maximized="0"
     inkscape:window-y="338"
     inkscape:window-x="338"
     inkscape:window-height="1009"
     inkscape:window-width="1274"
     fit-margin-bottom="0"
     fit-margin-right="0"
     fit-margin-left="0"
     fit-margin-top="0"
     showgrid="false"
     inkscape:document-rotation="0"
     inkscape:current-layer="layer1"
     inkscape:document-units="mm"
     inkscape:cy="86.505393"
     inkscape:cx="106.73278"
     inkscape:zoom="1.4"
     inkscape:pageshadow="2"
     inkscape:pageopacity="0.0"
     borderopacity="1.0"
     bordercolor="#666666"
     pagecolor="#ffffff"
     id="base" />
  <metadata
     id="metadata1263">
    <rdf:RDF>
      <cc:Work
         rdf:about="">
        <dc:format>image/svg+xml</dc:format>
        <dc:type
           rdf:resource="http://purl.org/dc/dcmitype/StillImage" />
        <dc:title></dc:title>
      </cc:Work>
    </rdf:RDF>
  </metadata>
  <g
     transform="translate(-92.3587,-77.629611)"
     id="layer1"
     inkscape:groupmode="layer"
     inkscape:label="Layer 1">
    <g
       id="g1236"
       transform="translate(-7.3280177,14.732421)">
      <circle
         cy="65.407822"
         cx="156.68723"
         id="path987-0-51"
         style="fill:#000000;fill-opacity:1;stroke:none;stroke-width:0.899993;stroke-linecap:round;stroke-linejoin:round;stroke-miterlimit:4;stroke-dasharray:none"
         r="0.5" />
      <circle
         style="fill:#000000;fill-opacity:1;stroke:none;stroke-width:0.899993;stroke-linecap:round;stroke-linejoin:round;stroke-miterlimit:4;stroke-dasharray:none"
         id="path987-0-5-3"
         cx="156.68723"
         cy="68.22142"
         r="0.5" />
      <circle
         cy="71.035019"
         cx="156.68723"
         id="path987-0-5-9-5"
         style="fill:#000000;fill-opacity:1;stroke:none;stroke-width:0.899993;stroke-linecap:round;stroke-linejoin:round;stroke-miterlimit:4;stroke-dasharray:none"
         r="0.5" />
      <circle
         style="fill:#000000;fill-opacity:1;stroke:none;stroke-width:0.899993;stroke-linecap:round;stroke-linejoin:round;stroke-miterlimit:4;stroke-dasharray:none"
         id="path987-0-5-9-8-4"
         cx="156.68723"
         cy="73.848618"
         r="0.5" />
    </g>
    <g
       transform="translate(-7.6595947,14.732421)"
       aria-label="AeroPod"
       id="text835-5"
       style="font-size:12.7px;line-height:1.25;font-family:Comfortaa;-inkscape-font-specification:Comfortaa;stroke-width:0.765;stroke-miterlimit:4;stroke-dasharray:none">
      <path
         d="m 100.50795,76.907799 q -0.2921,0 -0.4191,-0.2413 -0.127,-0.2413 -0.0254,-0.4699 l 3.7338,-8.8646 q 0.1397,-0.3429 0.4826,-0.3429 0.3302,0 0.4699,0.3429 l 3.7465,8.8773 q 0.1143,0.2413 -0.0381,0.4699 -0.1397,0.2286 -0.4064,0.2286 -0.1524,0 -0.2794,-0.0762 -0.1143,-0.0762 -0.1905,-0.2286 l -3.4925,-8.4709 h 0.3937 l -3.5179,8.4709 q -0.0635,0.1524 -0.1905,0.2286 -0.1143,0.0762 -0.2667,0.0762 z m 0.8382,-2.3622 0.381,-0.8509 h 5.1562 l 0.381,0.8509 z"
         style="stroke-width:0.765;stroke-miterlimit:4;stroke-dasharray:none"
         id="path1155" />
      <path
         d="m 112.75829,76.971299 q -1.0287,0 -1.8288,-0.4445 -0.7874,-0.4572 -1.2446,-1.2573 -0.4445,-0.8001 -0.4445,-1.8288 0,-1.0414 0.4191,-1.8288 0.4318,-0.8001 1.1811,-1.2573 0.7493,-0.4572 1.7272,-0.4572 0.9652,0 1.6764,0.4445 0.7239,0.4318 1.1176,1.2065 0.3937,0.7747 0.3937,1.7653 0,0.2032 -0.127,0.3302 -0.127,0.1143 -0.3302,0.1143 h -5.3975 v -0.8128 h 5.4991 l -0.5461,0.3937 q 0.0127,-0.7366 -0.2667,-1.3208 -0.2794,-0.5842 -0.8001,-0.9144 -0.508,-0.3302 -1.2192,-0.3302 -0.7239,0 -1.27,0.3429 -0.5461,0.3429 -0.8509,0.9525 -0.2921,0.5969 -0.2921,1.3716 0,0.7747 0.3302,1.3716 0.3429,0.5969 0.9271,0.9398 0.5842,0.3429 1.3462,0.3429 0.4572,0 0.9144,-0.1524 0.4699,-0.1651 0.7493,-0.4064 0.1397,-0.1143 0.3175,-0.1143 0.1778,-0.0127 0.3048,0.0889 0.1651,0.1524 0.1651,0.3302 0.0127,0.1778 -0.1397,0.3048 -0.4191,0.3556 -1.0668,0.5969 -0.6477,0.2286 -1.2446,0.2286 z"
         style="stroke-width:0.765;stroke-miterlimit:4;stroke-dasharray:none"
         id="path1157" />
      <path
         d="m 117.80376,72.627899 q 0.0381,-0.7874 0.4064,-1.4097 0.381,-0.6223 0.9779,-0.9779 0.6096,-0.3556 1.3462,-0.3556 0.5842,0 0.9017,0.1651 0.3175,0.1651 0.2413,0.4826 -0.0508,0.1905 -0.1778,0.254 -0.1143,0.0635 -0.2921,0.0508 -0.1651,-0.0127 -0.381,-0.0254 -0.7112,-0.0635 -1.27,0.1524 -0.5461,0.2032 -0.8763,0.635 -0.3175,0.4318 -0.3175,1.0287 z m 0.0762,4.2799 q -0.2286,0 -0.3556,-0.127 -0.127,-0.127 -0.127,-0.3556 v -5.9817 q 0,-0.2286 0.127,-0.3556 0.127,-0.127 0.3556,-0.127 0.2286,0 0.3556,0.127 0.127,0.127 0.127,0.3556 v 5.9817 q 0,0.2286 -0.127,0.3556 -0.127,0.127 -0.3556,0.127 z"
         style="stroke-width:0.765;stroke-miterlimit:4;stroke-dasharray:none"
         id="path1159" />
      <path
         d="m 125.89267,76.971299 q -1.016,0 -1.8161,-0.4572 -0.8001,-0.4572 -1.2573,-1.2573 -0.4572,-0.8001 -0.4572,-1.8161 0,-1.0287 0.4572,-1.8288 0.4572,-0.8001 1.2573,-1.2573 0.8001,-0.4572 1.8161,-0.4572 1.016,0 1.8034,0.4572 0.8001,0.4572 1.2573,1.2573 0.4572,0.8001 0.4699,1.8288 0,1.016 -0.4699,1.8161 -0.4572,0.8001 -1.2573,1.2573 -0.7874,0.4572 -1.8034,0.4572 z m 0,-0.889 q 0.7366,0 1.3208,-0.3429 0.5842,-0.3429 0.9144,-0.9398 0.3302,-0.5969 0.3302,-1.3589 0,-0.762 -0.3302,-1.3589 -0.3302,-0.6096 -0.9144,-0.9525 -0.5842,-0.3429 -1.3208,-0.3429 -0.7366,0 -1.3208,0.3429 -0.5842,0.3429 -0.9271,0.9525 -0.3302,0.5969 -0.3302,1.3589 0,0.762 0.3302,1.3589 0.3429,0.5969 0.9271,0.9398 0.5842,0.3429 1.3208,0.3429 z"
         style="stroke-width:0.765;stroke-miterlimit:4;stroke-dasharray:none"
         id="path1161" />
      <path
         d="m 131.9599,76.907799 q -0.2159,0 -0.3556,-0.1397 -0.1397,-0.1397 -0.1397,-0.3556 v -8.9281 q 0,-0.2159 0.1397,-0.3556 0.1397,-0.1397 0.3556,-0.1397 h 2.54 q 0.9398,0 1.6637,0.4191 0.7239,0.4064 1.1303,1.1303 0.4064,0.7239 0.4064,1.6764 0,0.9271 -0.4064,1.651 -0.4064,0.7112 -1.1303,1.1303 -0.7239,0.4064 -1.6637,0.4064 h -2.0447 v 3.0099 q 0,0.2159 -0.1397,0.3556 -0.1397,0.1397 -0.3556,0.1397 z m 0.4953,-4.4577 h 2.0447 q 0.6477,0 1.1557,-0.2794 0.508,-0.2921 0.7874,-0.8001 0.2921,-0.508 0.2921,-1.1557 0,-0.6731 -0.2921,-1.1811 -0.2794,-0.508 -0.7874,-0.8001 -0.508,-0.2921 -1.1557,-0.2921 h -2.0447 z"
         style="stroke-width:0.765;stroke-miterlimit:4;stroke-dasharray:none"
         id="path1163" />
      <path
         d="m 142.01572,76.971299 q -1.016,0 -1.8161,-0.4572 -0.8001,-0.4572 -1.2573,-1.2573 -0.4572,-0.8001 -0.4572,-1.8161 0,-1.0287 0.4572,-1.8288 0.4572,-0.8001 1.2573,-1.2573 0.8001,-0.4572 1.8161,-0.4572 1.016,0 1.8034,0.4572 0.8001,0.4572 1.2573,1.2573 0.4572,0.8001 0.4699,1.8288 0,1.016 -0.4699,1.8161 -0.4572,0.8001 -1.2573,1.2573 -0.7874,0.4572 -1.8034,0.4572 z m 0,-0.889 q 0.7366,0 1.3208,-0.3429 0.5842,-0.3429 0.9144,-0.9398 0.3302,-0.5969 0.3302,-1.3589 0,-0.762 -0.3302,-1.3589 -0.3302,-0.6096 -0.9144,-0.9525 -0.5842,-0.3429 -1.3208,-0.3429 -0.7366,0 -1.3208,0.3429 -0.5842,0.3429 -0.9271,0.9525 -0.3302,0.5969 -0.3302,1.3589 0,0.762 0.3302,1.3589 0.3429,0.5969 0.9271,0.9398 0.5842,0.3429 1.3208,0.3429 z"
         style="stroke-width:0.765;stroke-miterlimit:4;stroke-dasharray:none"
         id="path1165" />
      <path
         d="m 150.62294,76.971299 c -0.66887,0 -1.27,-0.1524 -1.8034,-0.4572 -0.5334,-0.313267 -0.95673,-0.7366 -1.27,-1.27 -0.3048,-0.5334 -0.4572,-1.138767 -0.4572,-1.8161 0,-0.668867 0.14817,-1.27 0.4445,-1.8034 0.3048,-0.5334 0.71543,-0.9525 1.2319,-1.2573 0.51647,-0.313267 1.10067,-0.4699 1.7526,-0.4699 0.56727,0 1.0795,0.122767 1.5367,0.3683 0.4572,0.237067 0.8255,0.554567 1.1049,0.9525 V 63.39249 c 0,-0.1524 0.0466,-0.270933 0.1397,-0.3556 0.0931,-0.09313 0.21167,-0.1397 0.3556,-0.1397 0.14393,0 0.26247,0.04657 0.3556,0.1397 0.0931,0.08467 0.1397,0.2032 0.1397,0.3556 v 10.086309 c -0.0169,0.6604 -0.18203,1.2573 -0.4953,1.7907 -0.3048,0.524933 -0.7239,0.9398 -1.2573,1.2446 -0.52493,0.3048 -1.1176,0.4572 -1.778,0.4572 z m 0,-0.889 c 0.49107,0 0.9271,-0.1143 1.3081,-0.3429 0.38947,-0.237067 0.69427,-0.554567 0.9144,-0.9525 0.2286,-0.397933 0.3429,-0.8509 0.3429,-1.3589 0,-0.499533 -0.1143,-0.948267 -0.3429,-1.3462 -0.22013,-0.4064 -0.52493,-0.7239 -0.9144,-0.9525 -0.381,-0.2286 -0.81703,-0.3429 -1.3081,-0.3429 -0.4826,0 -0.91863,0.1143 -1.3081,0.3429 -0.38947,0.2286 -0.6985,0.5461 -0.9271,0.9525 -0.2286,0.397933 -0.3429,0.846667 -0.3429,1.3462 0,0.508 0.1143,0.960967 0.3429,1.3589 0.2286,0.397933 0.53763,0.715433 0.9271,0.9525 0.38947,0.2286 0.8255,0.3429 1.3081,0.3429 z"
         style="stroke-width:0.465;stroke-miterlimit:4;stroke-dasharray:none"
         id="path1167"
         sodipodi:nodetypes="sccsccsccscscscccssccsccsscsscs" />
    </g>
    <path
       style="fill:none;fill-opacity:1;stroke:#000000;stroke-width:1;stroke-linecap:round;stroke-linejoin:round;stroke-miterlimit:4;stroke-dasharray:none;stroke-opacity:1"
       d="m 152.72447,79.788549 v 11.415173 h 2.36921"
       id="path1137"
       sodipodi:nodetypes="ccc" />
  </g>
</svg>
