<?xml version="1.0" encoding="UTF-8"?>
<svg width="63.234982mm" height="14.074111mm" version="1.1" viewBox="0 0 63.234982 14.074111" xmlns="http://www.w3.org/2000/svg">
 <g transform="translate(-92.3587,-77.629611)">
  <g transform="translate(-7.3280177,14.732421)">
   <circle cx="156.68723" cy="65.407822" r=".5"/>
   <circle cx="156.68723" cy="68.22142" r=".5"/>
   <circle cx="156.68723" cy="71.035019" r=".5"/>
   <circle cx="156.68723" cy="73.848618" r=".5"/>
  </g>
  <g transform="translate(-7.6595947,14.732421)" aria-label="AeroPod">
   <g stroke-width=".765">
    <path d="m100.50795 76.907799q-0.2921 0-0.4191-0.2413t-0.0254-0.4699l3.7338-8.8646q0.1397-0.3429 0.4826-0.3429 0.3302 0 0.4699 0.3429l3.7465 8.8773q0.1143 0.2413-0.0381 0.4699-0.1397 0.2286-0.4064 0.2286-0.1524 0-0.2794-0.0762-0.1143-0.0762-0.1905-0.2286l-3.4925-8.4709h0.3937l-3.5179 8.4709q-0.0635 0.1524-0.1905 0.2286-0.1143 0.0762-0.2667 0.0762zm0.8382-2.3622 0.381-0.8509h5.1562l0.381 0.8509z"/>
    <path d="m112.75829 76.971299q-1.0287 0-1.8288-0.4445-0.7874-0.4572-1.2446-1.2573-0.4445-0.8001-0.4445-1.8288 0-1.0414 0.4191-1.8288 0.4318-0.8001 1.1811-1.2573t1.7272-0.4572q0.9652 0 1.6764 0.4445 0.7239 0.4318 1.1176 1.2065t0.3937 1.7653q0 0.2032-0.127 0.3302-0.127 0.1143-0.3302 0.1143h-5.3975v-0.8128h5.4991l-0.5461 0.3937q0.0127-0.7366-0.2667-1.3208t-0.8001-0.9144q-0.508-0.3302-1.2192-0.3302-0.7239 0-1.27 0.3429t-0.8509 0.9525q-0.2921 0.5969-0.2921 1.3716t0.3302 1.3716q0.3429 0.5969 0.9271 0.9398t1.3462 0.3429q0.4572 0 0.9144-0.1524 0.4699-0.1651 0.7493-0.4064 0.1397-0.1143 0.3175-0.1143 0.1778-0.0127 0.3048 0.0889 0.1651 0.1524 0.1651 0.3302 0.0127 0.1778-0.1397 0.3048-0.4191 0.3556-1.0668 0.5969-0.6477 0.2286-1.2446 0.2286z"/>
    <path d="m117.80376 72.627899q0.0381-0.7874 0.4064-1.4097 0.381-0.6223 0.9779-0.9779 0.6096-0.3556 1.3462-0.3556 0.5842 0 0.9017 0.1651t0.2413 0.4826q-0.0508 0.1905-0.1778 0.254-0.1143 0.0635-0.2921 0.0508-0.1651-0.0127-0.381-0.0254-0.7112-0.0635-1.27 0.1524-0.5461 0.2032-0.8763 0.635-0.3175 0.4318-0.3175 1.0287zm0.0762 4.2799q-0.2286 0-0.3556-0.127t-0.127-0.3556v-5.9817q0-0.2286 0.127-0.3556t0.3556-0.127 0.3556 0.127 0.127 0.3556v5.9817q0 0.2286-0.127 0.3556t-0.3556 0.127z"/>
    <path d="m125.89267 76.971299q-1.016 0-1.8161-0.4572t-1.2573-1.2573-0.4572-1.8161q0-1.0287 0.4572-1.8288t1.2573-1.2573 1.8161-0.4572 1.8034 0.4572q0.8001 0.4572 1.2573 1.2573t0.4699 1.8288q0 1.016-0.4699 1.8161-0.4572 0.8001-1.2573 1.2573-0.7874 0.4572-1.8034 0.4572zm0-0.889q0.7366 0 1.3208-0.3429t0.9144-0.9398 0.3302-1.3589-0.3302-1.3589q-0.3302-0.6096-0.9144-0.9525t-1.3208-0.3429-1.3208 0.3429-0.9271 0.9525q-0.3302 0.5969-0.3302 1.3589t0.3302 1.3589q0.3429 0.5969 0.9271 0.9398t1.3208 0.3429z"/>
    <path d="m131.9599 76.907799q-0.2159 0-0.3556-0.1397t-0.1397-0.3556v-8.9281q0-0.2159 0.1397-0.3556t0.3556-0.1397h2.54q0.9398 0 1.6637 0.4191 0.7239 0.4064 1.1303 1.1303t0.4064 1.6764q0 0.9271-0.4064 1.651-0.4064 0.7112-1.1303 1.1303-0.7239 0.4064-1.6637 0.4064h-2.0447v3.0099q0 0.2159-0.1397 0.3556t-0.3556 0.1397zm0.4953-4.4577h2.0447q0.6477 0 1.1557-0.2794 0.508-0.2921 0.7874-0.8001 0.2921-0.508 0.2921-1.1557 0-0.6731-0.2921-1.1811-0.2794-0.508-0.7874-0.8001t-1.1557-0.2921h-2.0447z"/>
    <path d="m142.01572 76.971299q-1.016 0-1.8161-0.4572t-1.2573-1.2573-0.4572-1.8161q0-1.0287 0.4572-1.8288t1.2573-1.2573 1.8161-0.4572 1.8034 0.4572q0.8001 0.4572 1.2573 1.2573t0.4699 1.8288q0 1.016-0.4699 1.8161-0.4572 0.8001-1.2573 1.2573-0.7874 0.4572-1.8034 0.4572zm0-0.889q0.7366 0 1.3208-0.3429t0.9144-0.9398 0.3302-1.3589-0.3302-1.3589q-0.3302-0.6096-0.9144-0.9525t-1.3208-0.3429-1.3208 0.3429-0.9271 0.9525q-0.3302 0.5969-0.3302 1.3589t0.3302 1.3589q0.3429 0.5969 0.9271 0.9398t1.3208 0.3429z"/>
   </g>
   <path d="m150.62294 76.971299c-0.66887 0-1.27-0.1524-1.8034-0.4572-0.5334-0.313267-0.95673-0.7366-1.27-1.27-0.3048-0.5334-0.4572-1.138767-0.4572-1.8161 0-0.668867 0.14817-1.27 0.4445-1.8034 0.3048-0.5334 0.71543-0.9525 1.2319-1.2573 0.51647-0.313267 1.10067-0.4699 1.7526-0.4699 0.56727 0 1.0795 0.122767 1.5367 0.3683 0.4572 0.237067 0.8255 0.554567 1.1049 0.9525v-7.825709c0-0.1524 0.0466-0.270933 0.1397-0.3556 0.0931-0.09313 0.21167-0.1397 0.3556-0.1397s0.26247 0.04657 0.3556 0.1397c0.0931 0.08467 0.1397 0.2032 0.1397 0.3556v10.086309c-0.0169 0.6604-0.18203 1.2573-0.4953 1.7907-0.3048 0.524933-0.7239 0.9398-1.2573 1.2446-0.52493 0.3048-1.1176 0.4572-1.778 0.4572zm0-0.889c0.49107 0 0.9271-0.1143 1.3081-0.3429 0.38947-0.237067 0.69427-0.554567 0.9144-0.9525 0.2286-0.397933 0.3429-0.8509 0.3429-1.3589 0-0.499533-0.1143-0.948267-0.3429-1.3462-0.22013-0.4064-0.52493-0.7239-0.9144-0.9525-0.381-0.2286-0.81703-0.3429-1.3081-0.3429-0.4826 0-0.91863 0.1143-1.3081 0.3429s-0.6985 0.5461-0.9271 0.9525c-0.2286 0.397933-0.3429 0.846667-0.3429 1.3462 0 0.508 0.1143 0.960967 0.3429 1.3589s0.53763 0.715433 0.9271 0.9525c0.38947 0.2286 0.8255 0.3429 1.3081 0.3429z" stroke-width=".465"/>
  </g>
  <path d="m152.72447 79.788549v11.415173h2.36921" fill="none" stroke="#000" stroke-linecap="round" stroke-linejoin="round"/>
 </g>
</svg>
