<svg width="22.902855mm" height="48.199947mm" version="1.1" viewBox="0 0 22.902855 48.199947" xmlns="http://www.w3.org/2000/svg">
 <g transform="translate(-150.32214,-93.556908)">
  <g transform="translate(-235.889,29.906882)">
   <g transform="translate(239.88903,-57.500014)" fill="none" stroke-linecap="round" stroke-linejoin="round" stroke-width="1.2">
    <path d="m148.95637 152v-16 2" stroke="#418f94"/>
    <path d="m148.95637 136.00001v3" stroke="#000"/>
   </g>
   <path d="m391.44349 104 15.58845-9m-15.58845 4 15.58845-9m-18.18653 2.5a1.412187 1.2087106 46.127744 0 1-1.84564-0.18456 1.412187 1.2087106 46.127744 0 1-0.11178-1.85146m2.18279-8.92796a1.412187 1.2087106 46.127744 0 1-1.84564-0.18456 1.412187 1.2087106 46.127744 0 1-0.11178-1.85146m1.95742 7.03602a1.412187 1.2087106 46.127744 0 1-1.84564-0.18456 1.412187 1.2087106 46.127744 0 1-0.11178-1.85146m4.33013-5.5 8.66025-5m-8.66026 10 8.66026-5m-11.03296 29.53602a1.412187 1.2087106 46.127744 0 1-1.84564-0.18456 1.412187 1.2087106 46.127744 0 1-0.11178-1.85146m1.73205-3a1.412187 1.2087106 46.127744 0 1-1.84564-0.18456 1.412187 1.2087106 46.127744 0 1-0.11178-1.85146m1.95742-2.96398a1.412187 1.2087106 46.127744 0 1-1.84564-0.18456 1.412187 1.2087106 46.127744 0 1-0.11178-1.85146m4.55549-2.46398 12.99039-7.5m-12.99039 2.5 12.99039-7.5m-17.32051 30v-35l21.65063-12.5v35z" fill="none" stroke="#000" stroke-linecap="round" stroke-linejoin="round" stroke-width=".7"/>
  </g>
 </g>
</svg>
